<?xml version="1.0" encoding="UTF-8" standalone="no"?><!DOCTYPE svg PUBLIC "-//W3C//DTD SVG 1.1//EN" "http://www.w3.org/Graphics/SVG/1.1/DTD/svg11.dtd"><svg width="100%" height="100%" viewBox="0 0 4096 1852" version="1.1" xmlns="http://www.w3.org/2000/svg" xmlns:xlink="http://www.w3.org/1999/xlink" xml:space="preserve" xmlns:serif="http://www.serif.com/" style="fill-rule:evenodd;clip-rule:evenodd;stroke-linejoin:round;stroke-miterlimit:2;"><rect id="Artboard1" x="0" y="0" width="4096" height="1851.55" style="fill:none;"/><g id="Artboard11" serif:id="Artboard1"><g id="v7"><g><path d="M605.321,608.508l0,842.31c0,5.305 2.108,10.392 5.858,14.143c3.751,3.75 8.838,5.857 14.142,5.857l286.022,0c5.304,0 10.391,-2.107 14.142,-5.857c3.751,-3.751 5.858,-8.838 5.858,-14.143l-0,-842.31l-326.022,0Z" style="fill:#fff;"/><path d="M931.343,551.935l-0,-2.275l283.596,0c5.305,0 10.392,-2.107 14.142,-5.858c3.751,-3.75 5.858,-8.837 5.858,-14.142l0,-191.576c0,-5.304 -2.107,-10.391 -5.858,-14.142c-3.75,-3.751 -8.837,-5.858 -14.142,-5.858l-894.939,0c-5.304,0 -10.391,2.107 -14.142,5.858c-3.751,3.751 -5.858,8.838 -5.858,14.142l-0,191.576c-0,5.305 2.107,10.392 5.858,14.142c3.751,3.751 8.838,5.858 14.142,5.858l285.321,0l0,2.275l326.022,-0Z" style="fill:#fff;"/><path d="M2230.7,1283.18l58.888,174.077c2.758,8.106 10.371,13.557 18.934,13.557l288.721,0c6.477,0 12.553,-3.136 16.304,-8.417c3.751,-5.281 4.713,-12.051 2.581,-18.167l-56.108,-160.921l-0.007,-0.02l-329.313,-0.109Z" style="fill:#fff;"/><path d="M2453.2,976.182l-225.041,-644.689c-2.803,-8.03 -10.378,-13.409 -18.883,-13.409l-318.351,0c-8.488,0 -16.052,5.358 -18.868,13.365l-391.304,1112.74c-2.151,6.119 -1.202,12.902 2.548,18.195c3.749,5.293 9.833,8.439 16.32,8.439l250.38,0c8.713,0 16.424,-5.641 19.062,-13.946l68.02,-214.199l9.302,0l-9.286,-0.003l62.506,-207.558l-0.423,0l120.928,-377.702c0.921,-2.876 3.594,-4.827 6.614,-4.827l0.445,-0c0.826,-0 1.558,0.534 1.809,1.321l102.068,322.316l322.154,-0.038Z" style="fill:#fff;"/><path d="M2980.08,1445.1c0,5.304 2.108,10.391 5.858,14.142c3.751,3.751 8.838,5.858 14.142,5.858l775.916,0c5.304,0 10.391,-2.107 14.142,-5.858c3.751,-3.751 5.858,-8.838 5.858,-14.142c-0,-43.8 -0,-147.776 -0,-191.576c0,-5.304 -2.107,-10.391 -5.858,-14.142c-3.751,-3.751 -8.838,-5.858 -14.142,-5.858c-92.584,-0 -475.069,-0 -475.069,-0l-0,-689.582l459.544,-0c5.305,-0 10.392,-2.107 14.142,-5.858c3.751,-3.751 5.858,-8.838 5.858,-14.142c0,-43.8 0,-147.776 0,-191.576c0,-5.305 -2.107,-10.392 -5.858,-14.142c-3.75,-3.751 -8.837,-5.858 -14.142,-5.858c-110.914,-0 -649.476,-0 -760.391,-0c-11.045,-0 -20,8.954 -20,20l0,1112.73Z" style="fill:#fff;fill-rule:nonzero;"/></g><g id="Layer1"><path d="M1234.94,338.084c0,-5.304 -2.107,-10.391 -5.858,-14.142c-3.75,-3.751 -8.837,-5.858 -14.142,-5.858c-122.686,0 -772.253,0 -894.939,0c-5.304,0 -10.391,2.107 -14.142,5.858c-3.751,3.751 -5.858,8.838 -5.858,14.142c-0,44.18 -0,149.67 -0,193.851c-0,5.304 2.107,10.391 5.858,14.142c3.751,3.751 8.838,5.858 14.142,5.858c122.686,-0 772.253,-0 894.939,-0c5.305,-0 10.392,-2.107 14.142,-5.858c3.751,-3.751 5.858,-8.838 5.858,-14.142c0,-44.181 0,-149.671 0,-193.851Z" style="fill:#ff3f3f;"/><path d="M1966.41,1015.26l638.935,-0.076c5.304,-0.001 10.392,2.106 14.143,5.857c3.752,3.751 5.859,8.838 5.859,14.143l0,187.741c0,5.305 -2.108,10.393 -5.86,14.144c-3.752,3.751 -8.841,5.857 -14.147,5.856l-388.72,-0.129l-0.042,-0.123l-309.365,-0.007l-9.286,-0.003l68.483,-227.403Z" style="fill:#ffdc0a;"/><path d="M1846.39,1242.67l370.235,0.123l-0.042,-0.123l-370.193,0Z" style="fill:#ffdc0a;"/><path d="M3781.93,783.525c0,-11.046 -8.954,-20 -20,-20c-85.084,-0 -412.613,-0 -412.613,-0l-0,227.749l412.613,0c11.046,0 20,-8.954 20,-20c0,-43.156 0,-144.594 0,-187.749Z" style="fill:#46ff53;"/></g></g></g></svg>